<svg width="356" height="120" fill="none" xmlns="http://www.w3.org/2000/svg"><path d="M15.66 32.449h-1.64c-3.877 0-7.02 3.066-7.02 6.849v62.399c0 3.783 3.143 6.849 7.02 6.849h1.64c3.877 0 7.02-3.066 7.02-6.849v-62.4c0-3.782-3.143-6.848-7.02-6.848z" fill="#6C6"/><path d="M72.203 35.333l-.343-.444c-2.332-3.023-6.733-3.628-9.83-1.354L32.804 54.998c-3.098 2.275-3.719 6.569-1.387 9.59l.343.445c2.332 3.022 6.733 3.628 9.83 1.353l29.226-21.463c3.097-2.274 3.718-6.568 1.387-9.59z" fill="#0099CB"/><path d="M72.24 104.653l.338-.449c2.29-3.052 1.61-7.338-1.52-9.572L41.54 73.555c-3.129-2.234-7.521-1.57-9.81 1.481l-.337.45c-2.29 3.052-1.61 7.337 1.518 9.57l29.519 21.078c3.129 2.234 7.521 1.571 9.81-1.481z" fill="#6C6"/><path d="M91.13 101.112c-.42.849-.94 1.503-1.55 1.942-.62.439-1.26.741-1.94.897-.68.156-1.25.234-1.7.234-.52 0-1.1-.078-1.75-.234-.65-.156-1.28-.458-1.89-.897-.62-.439-1.13-1.093-1.55-1.942-.42-.849-.63-1.941-.63-3.268v-34.78c0-1.26.21-2.293.63-3.084.42-.79.92-1.404 1.51-1.843.58-.44 1.18-.742 1.8-.898.61-.156 1.15-.234 1.6-.234.45 0 1 .078 1.65.234.65.156 1.26.459 1.85.898.58.439 1.08 1.063 1.51 1.843.42.79.63 1.815.63 3.083v2.371h.19c1.7-3.014 3.52-4.8 5.61-6.302 2.26-1.63 4.65-2.693 7.5-2.8 3.16-.108 4.09.458 5.28 1.024 1.5.712 2.35 1.951 2.5 3.59.15 1.64.14 2.947-1.95 4.84-1.09.995-2.94 1.277-6.1 1.258-3.69-.03-7.54 1.22-9.55 3.649-2.01 2.429-3.01 5.541-3.01 9.336v17.815c0 1.327-.21 2.419-.63 3.268h-.01zm42.58-56.975c0 1.902-.71 3.482-2.12 4.74-1.42 1.26-3.16 1.894-5.24 1.894s-3.79-.664-5.15-1.98c-1.35-1.318-2.03-2.87-2.03-4.654 0-1.786.68-3.327 2.03-4.654 1.35-1.317 3.07-1.98 5.15-1.98 2.08 0 3.82.633 5.24 1.892 1.42 1.258 2.12 2.839 2.12 4.741zm-1.61 53.882c0 1.288-.2 2.352-.61 3.181-.41.829-.91 1.463-1.51 1.883-.6.429-1.23.722-1.89.878-.66.156-1.21.234-1.65.234-.5 0-1.07-.078-1.7-.234-.63-.156-1.24-.449-1.84-.878-.6-.429-1.1-1.064-1.51-1.883-.41-.829-.61-1.893-.61-3.18V64.496c0-1.287.2-2.35.61-3.18.41-.83.91-1.454 1.51-1.893.6-.429 1.21-.722 1.84-.878.63-.156 1.19-.234 1.7-.234.44 0 .99.078 1.65.234a5.35 5.35 0 0 1 1.89.878c.6.43 1.1 1.064 1.51 1.893.41.83.61 1.893.61 3.18V98.02zm20.56 3.093c-.42.849-.94 1.503-1.55 1.942-.62.439-1.26.741-1.94.897-.68.156-1.25.234-1.7.234-.52 0-1.1-.078-1.75-.234-.65-.156-1.28-.458-1.89-.897-.62-.439-1.13-1.093-1.55-1.942-.42-.849-.63-1.941-.63-3.268v-34.78c0-1.26.21-2.293.63-3.084.42-.79.92-1.404 1.51-1.843.58-.44 1.18-.742 1.8-.898.61-.156 1.15-.234 1.6-.234.45 0 1 .078 1.65.234.65.156 1.26.459 1.85.898.58.439 1.08 1.063 1.51 1.843.42.79.63 1.815.63 3.083v2.371h.19c1.7-3.014 3.52-4.8 5.61-6.302 2.26-1.63 4.65-2.693 7.5-2.8 3.16-.108 4.09.458 5.28 1.024 1.5.712 2.35 1.951 2.5 3.59.15 1.64.14 2.947-1.95 4.84-1.09.995-2.94 1.277-6.1 1.258-3.69-.03-7.54 1.22-9.55 3.649-2.01 2.429-3.01 5.541-3.01 9.336v17.815c0 1.327-.21 2.419-.63 3.268h-.01zm67.68-2.995c0 1.23-.19 2.224-.57 2.995-.38.771-.85 1.366-1.42 1.795-.57.43-1.15.703-1.75.83-.6.126-1.12.185-1.56.185-.44 0-.96-.059-1.56-.185-.6-.127-1.18-.4-1.75-.83-.57-.429-1.04-1.024-1.42-1.795-.38-.771-.57-1.766-.57-2.995v-.644h-.28c-1.13 1.961-2.96 3.581-5.48 4.839-2.52 1.259-5.38 1.883-8.59 1.883-1.83 0-3.73-.234-5.71-.693a17.269 17.269 0 0 1-5.48-2.302c-1.67-1.073-3.05-2.488-4.15-4.234-1.1-1.746-1.65-3.912-1.65-6.498 0-3.317.96-5.951 2.88-7.922 1.92-1.96 4.39-3.473 7.41-4.517 3.02-1.044 6.37-1.736 10.05-2.068 3.68-.342 7.28-.507 10.81-.507V74.35c0-2.76-1.02-4.8-3.07-6.127-2.05-1.317-4.48-1.98-7.32-1.98-1.76 0-3.43.312-5 .917-1.57.614-3.18 1.415-4.81 2.39-1.07.615-2.08.917-3.02.917-1.2 0-2.2-.4-3.02-1.2-.82-.8-1.23-1.814-1.23-3.044 0-.673.17-1.385.52-2.117.35-.741 1.05-1.444 2.12-2.117 2.14-1.414 4.53-2.497 7.18-3.268a29.16 29.16 0 0 1 8.21-1.151c4.03 0 7.35.556 9.96 1.658 2.61 1.103 4.67 2.547 6.18 4.332a15.4 15.4 0 0 1 3.16 5.99c.6 2.215.9 4.42.9 6.634v21.922l.03.01zm-13.31-15.2a74.5 74.5 0 0 0-5.76.234c-2.02.156-3.87.488-5.57 1.015-1.7.527-3.12 1.258-4.25 2.214-1.13.957-1.7 2.254-1.7 3.913 0 1.043.24 1.922.71 2.624a5.448 5.448 0 0 0 1.84 1.707c.76.43 1.61.742 2.55.917.94.186 1.89.274 2.83.274 3.9 0 6.86-1.015 8.87-3.044 2.01-2.03 3.02-4.79 3.02-8.293v-1.57h-2.55l.01.009zm68.25 5.522H244.6l-4.81 11.327c-.76 1.844-1.68 3.044-2.79 3.59-1.1.556-2.16.829-3.16.829-1.64 0-3.04-.507-4.2-1.522-1.17-1.014-1.75-2.409-1.75-4.195 0-.488.06-.995.19-1.522.13-.517.35-1.151.66-1.892l24.07-52.225c.57-1.23 1.16-2.214 1.79-2.946.63-.732 1.26-1.288 1.89-1.659.63-.37 1.26-.614 1.89-.741a9.082 9.082 0 0 1 1.79-.185c.56 0 1.16.058 1.79.185.63.127 1.27.37 1.93.741.66.371 1.31.917 1.94 1.659.63.741 1.23 1.717 1.79 2.946l23.89 52.04c.31.74.52 1.385.61 1.93.09.557.14 1.016.14 1.386 0 1.903-.61 3.376-1.84 4.42s-2.66 1.571-4.3 1.571c-1.01 0-2.06-.274-3.16-.83-1.1-.556-2.06-1.775-2.88-3.688l-4.82-11.239.02.02zm-26.43-9.951h22.28l-11.05-26.156-11.23 26.156zm61.95 19.16c0 1.415-.22 2.537-.66 3.367-.44.829-.96 1.492-1.56 1.98-.6.488-1.24.81-1.94.966-.69.156-1.29.234-1.79.234s-1.1-.078-1.79-.234a4.702 4.702 0 0 1-1.94-.966c-.6-.488-1.12-1.151-1.56-1.98-.44-.83-.66-1.952-.66-3.366V43.863c0-1.346.22-2.458.66-3.317.44-.858.96-1.531 1.56-2.029.6-.488 1.24-.81 1.94-.966.69-.156 1.29-.234 1.79-.234s1.1.078 1.79.234c.69.156 1.34.478 1.94.966.6.488 1.12 1.17 1.56 2.03.44.858.66 1.96.66 3.316V97.65zm7.66-65.638c.01-.156.02-.303.04-.459.06-.478.1-.956.17-1.424.1-.673.27-1.327.48-1.98a14.461 14.461 0 0 1 2.11-4.128 14.57 14.57 0 0 1 2.35-2.526 15.43 15.43 0 0 1 3.78-2.38c.98-.43 2-.772 3.06-.967.57-.107 1.14-.195 1.72-.253.7-.079 1.4-.078 2.1-.05 1.09.05 2.17.215 3.22.489 1.15.302 2.24.731 3.28 1.287.9.479 1.73 1.035 2.51 1.678 1.1.908 2.05 1.932 2.85 3.103a14.77 14.77 0 0 1 1.9 3.902c.21.664.37 1.327.47 2.01.06.43.12.868.14 1.307.03.566.04 1.132.02 1.698-.03.556-.11 1.102-.18 1.649-.11.78-.32 1.551-.58 2.302a14.74 14.74 0 0 1-4.27 6.302c-.78.684-1.63 1.279-2.54 1.796-.83.468-1.7.849-2.6 1.16-.74.254-1.49.45-2.27.576-.47.078-.94.127-1.41.176-.67.068-1.35.078-2.02.039-.49-.03-.97-.088-1.45-.146a14.28 14.28 0 0 1-2.63-.615c-1.25-.41-2.42-.976-3.51-1.697a15.714 15.714 0 0 1-2.2-1.747 14.898 14.898 0 0 1-3.1-4.254c-.56-1.16-.96-2.38-1.19-3.648-.08-.45-.13-.898-.18-1.347-.02-.205-.03-.4-.04-.605 0-.029-.01-.068-.02-.097v-1.122l-.01-.03zm2.32.546c0 6.898 5.7 12.468 12.76 12.478 7.04.01 12.79-5.541 12.8-12.459 0-6.839-5.64-12.478-12.78-12.487-7.05 0-12.77 5.531-12.79 12.458l.01.01z" fill="#000"/><path d="M336.47 34.205c1.12 1.727 2.24 3.434 3.37 5.17H337.6c-.06 0-.1-.019-.13-.068-.97-1.492-1.94-2.975-2.91-4.458l-.27-.41c-.02-.03-.06-.059-.1-.059H331.24v4.986h-2.33v-13.6h6.12c.74 0 1.48.068 2.18.332.46.175.93.331 1.35.614.27.186.48.41.7.644.34.361.59.77.7 1.259.1.448.2.897.22 1.356.02.38-.03.76-.12 1.141-.07.312-.15.625-.26.917-.18.44-.5.79-.86 1.103-.57.497-1.25.76-1.98.946-.16.04-.31.078-.48.117l-.01.01zm-5.23-1.746h3.54c.24 0 .48-.04.71-.098.27-.058.53-.156.8-.234.21-.069.42-.117.6-.254.34-.263.63-.556.79-.956.19-.507.21-1.034.12-1.551-.07-.39-.26-.742-.6-.985-.19-.127-.37-.264-.57-.371a3.464 3.464 0 0 0-.59-.254c-.17-.049-.36-.058-.54-.078-.29-.03-.57-.088-.86-.088-1.1-.01-2.19 0-3.29 0h-.1v4.878l-.01-.01z" fill="#000"/></svg>
